<?xml version="1.0" encoding="iso-8859-1"?>
<!-- Uploaded to: SVG Repo, www.svgrepo.com, Generator: SVG Repo Mixer Tools -->
<svg height="800px" width="800px" version="1.1" id="Layer_1" xmlns="http://www.w3.org/2000/svg" xmlns:xlink="http://www.w3.org/1999/xlink" 
	 viewBox="0 0 512 512" xml:space="preserve">
<g>
	<path style="fill:#95D6A6;" d="M100.848,124.081c-12.853,0-23.273,10.42-23.273,23.273v341.374
		c0,12.851,10.42,23.273,23.273,23.273H256h155.152c12.853,0,23.273-10.422,23.273-23.273V147.354
		c0-12.853-10.42-23.273-23.273-23.273h-69.818"/>
</g>
<path style="fill:#64C37D;" d="M100.848,124.081c-12.853,0-23.273,10.42-23.273,23.273v341.374c0,12.851,10.42,23.273,23.273,23.273
	H256V124.081"/>
<path style="fill:#806749;" d="M256,0c-47.053,0-85.333,38.281-85.333,85.333v38.748v23.273v23.273v38.788
	c0,12.854,10.42,23.273,23.273,23.273c12.853,0,23.273-10.418,23.273-23.273v-38.788v-23.273v-23.273V85.333
	c0-21.388,17.399-38.788,38.788-38.788c21.388,0,38.788,17.4,38.788,38.788v38.748v23.273v23.273v38.788
	c0,12.854,10.42,23.273,23.273,23.273c12.853,0,23.273-10.418,23.273-23.273v-38.788v-23.273v-23.273V85.333
	C341.333,38.281,303.053,0,256,0z"/>
</svg>